<svg width="133" height="133" viewBox="0 0 133 133" fill="none" xmlns="http://www.w3.org/2000/svg">
<g id="expense_manager_logo">
<path id="Vector" d="M65.4609 124.669C97.0128 124.669 122.591 99.0909 122.591 67.539C122.591 35.9872 97.0128 10.4093 65.4609 10.4093C33.909 10.4093 8.33118 35.9872 8.33118 67.539C8.33118 99.0909 33.909 124.669 65.4609 124.669Z" fill="white" stroke="black" stroke-width="2"/>
<path id="Vector_2" d="M67.0402 121.115C96.6295 121.115 120.616 97.1283 120.616 67.539C120.616 37.9497 96.6295 13.9629 67.0402 13.9629C37.451 13.9629 13.4641 37.9497 13.4641 67.539C13.4641 97.1283 37.451 121.115 67.0402 121.115Z" fill="#FAA73E"/>
<path id="Vector_3" d="M34.1748 28.8174C29.2621 33.3643 23.2044 40.6731 19.5822 51.2237M115.905 58.2707C116.599 61.074 117.119 64.0728 117.414 67.2752L115.905 58.2707ZM100.669 31.5813C105.581 36.1282 111.639 43.4349 115.261 53.9876L100.669 31.5813ZM18.1836 55.9702C17.4895 58.7736 16.97 61.7723 16.677 64.9768L18.1836 55.9702Z" stroke="#FCE69D" stroke-linecap="round"/>
<path id="Vector_4" d="M85.1844 44.9249C85.1844 44.9249 74.4363 40.5463 63.6883 42.1381C52.9402 43.732 52.0695 50.6979 52.0695 54.877C52.0695 59.0582 57.9381 65.0287 66.2984 66.8221C74.6587 68.6113 85.5813 71.1986 84.189 80.3569C82.7966 89.5111 75.8308 91.7014 68.2685 91.7014C60.702 91.7014 50.5545 87.1254 48.1647 84.7334" stroke="black" stroke-width="12"/>
<path id="Vector_5" d="M68.1338 26.1056L68 108" stroke="black" stroke-width="8"/>
</g>
</svg>
